<?xml version="1.0" standalone="no"?>
<!DOCTYPE svg PUBLIC "-//W3C//DTD SVG 20010904//EN"
 "http://www.w3.org/TR/2001/REC-SVG-20010904/DTD/svg10.dtd">
<svg version="1.0" xmlns="http://www.w3.org/2000/svg"
 width="1024.000000pt" height="1024.000000pt" viewBox="0 0 1024.000000 1024.000000"
 preserveAspectRatio="xMidYMid meet">
<metadata>
Created by potrace 1.11, written by Peter Selinger 2001-2013
</metadata>
<g transform="translate(0.000000,1024.000000) scale(0.100000,-0.100000)"
fill="#000000" stroke="none">
<path d="M1395 10215 c-687 -161 -1223 -703 -1375 -1390 -19 -89 -20 -136 -20
-3710 0 -3574 1 -3621 20 -3710 82 -373 293 -731 573 -975 225 -197 485 -335
766 -406 l94 -24 3672 0 3672 0 94 24 c281 71 541 209 766 406 272 237 485
593 568 950 13 57 15 498 15 3735 0 3237 -2 3678 -15 3735 -83 357 -295 712
-568 951 -234 205 -527 355 -820 418 l-97 21 -3622 -1 -3623 0 -100 -24z
m4135 -3025 l0 -50 -2445 0 -2445 0 0 -1225 0 -1225 -50 0 -50 0 0 1275 0
1275 2495 0 2495 0 0 -50z m-3496 -649 c211 -57 306 -176 306 -385 0 -177 -68
-290 -214 -356 l-58 -27 45 -26 c80 -47 125 -121 195 -317 17 -47 54 -148 81
-225 28 -77 51 -141 51 -142 0 -2 -60 -3 -134 -3 l-133 0 -36 103 c-19 56 -54
157 -78 225 -83 243 -128 276 -374 277 l-140 0 -3 -302 -2 -303 -125 0 -125 0
0 756 0 756 333 -5 c297 -4 340 -7 411 -26z m1450 -244 c148 -407 184 -506
211 -577 52 -139 235 -649 235 -654 0 -4 -58 -6 -129 -6 l-128 0 -52 153 c-29
83 -60 175 -69 202 l-17 50 -316 3 -316 2 -70 -202 -70 -203 -131 -3 -131 -3
44 123 c31 89 388 1069 500 1376 3 9 47 12 172 12 l168 0 99 -273z m1586 163
l0 -110 -360 0 -360 0 0 -235 0 -235 335 0 335 0 0 -105 0 -105 -332 -2 -333
-3 -3 -302 -2 -303 -125 0 -125 0 0 755 0 755 485 0 485 0 0 -110z m872 30
c15 -41 55 -149 87 -240 33 -91 83 -228 111 -305 29 -77 74 -201 100 -275 27
-74 87 -240 134 -369 47 -129 86 -236 86 -238 0 -2 -59 -2 -131 -1 l-130 3
-55 160 c-29 88 -61 179 -70 203 l-16 42 -316 -2 -315 -3 -53 -160 c-30 -88
-61 -179 -70 -202 l-16 -43 -129 0 c-71 0 -129 2 -129 5 0 2 12 35 26 72 14
38 39 104 54 148 16 44 61 168 100 275 39 107 84 231 100 275 32 90 242 665
259 708 l11 27 167 -2 167 -3 28 -75z m1688 -30 l0 -110 -375 0 -375 0 0 -210
0 -210 355 0 355 0 0 -105 0 -105 -355 0 -355 0 0 -225 0 -225 390 0 390 0 0
-105 0 -105 -515 0 -515 0 0 755 0 755 500 0 500 0 0 -110z m562 -537 l3 -648
373 -3 372 -2 0 -105 0 -105 -500 0 -500 0 0 748 c0 412 3 752 7 755 3 4 60 7
125 7 l118 0 2 -647z m1508 -1658 l0 -1275 -2495 0 -2495 0 0 50 0 50 2445 0
2445 0 0 1225 0 1225 50 0 50 0 0 -1275z m-6955 184 c60 -30 105 -96 112 -164
l6 -45 -62 0 c-55 0 -61 2 -61 20 0 34 -29 80 -63 100 -41 26 -137 27 -177 3
-48 -28 -64 -88 -34 -131 21 -31 53 -45 179 -82 140 -40 187 -67 214 -123 39
-81 21 -198 -40 -254 -53 -48 -117 -68 -219 -68 -83 1 -102 4 -152 28 -76 37
-120 99 -131 185 l-5 42 64 0 c61 0 64 -1 64 -25 0 -75 72 -135 163 -135 163
0 219 162 74 214 -23 8 -87 28 -142 45 -119 36 -158 59 -181 103 -62 119 -14
249 109 297 75 30 212 25 282 -10z m1379 17 c93 -28 155 -103 156 -188 l0 -38
-60 0 -60 0 0 30 c0 21 -11 42 -34 68 -34 37 -35 37 -116 37 -80 0 -82 -1
-111 -33 -33 -36 -37 -76 -13 -110 21 -31 57 -47 154 -72 115 -29 202 -71 229
-108 32 -46 46 -127 32 -180 -36 -129 -211 -202 -376 -157 -110 29 -185 118
-185 217 0 28 1 28 59 28 l58 0 7 -38 c12 -76 73 -122 160 -122 98 0 156 46
156 125 0 54 -31 76 -162 114 -211 61 -255 95 -265 210 -13 138 89 229 258
231 36 0 87 -6 113 -14z m909 -6 c65 -25 110 -70 131 -133 27 -82 25 -87 -43
-87 -59 0 -59 0 -67 32 -16 75 -62 108 -149 108 -93 0 -135 -33 -135 -105 0
-49 33 -80 106 -100 152 -41 229 -70 260 -97 46 -41 68 -104 61 -175 -8 -78
-45 -129 -122 -168 -53 -27 -68 -30 -154 -30 -79 0 -105 4 -146 23 -86 39
-126 93 -140 185 l-7 47 60 0 60 0 11 -46 c22 -86 95 -126 203 -111 78 10 126
74 107 142 -12 40 -39 61 -107 80 -238 67 -288 96 -312 185 -15 55 -2 135 30
178 22 30 82 68 128 82 53 16 169 11 225 -10z m-3504 -297 c-1 -320 -3 -341
-52 -393 -31 -32 -108 -60 -168 -60 -59 0 -64 5 -63 58 l1 47 54 5 c64 6 74
11 97 53 15 28 17 65 17 309 l0 278 58 0 57 0 -1 -297z m695 250 l-1 -48 -187
-3 c-112 -1 -186 -6 -186 -12 -1 -6 -1 -48 -1 -95 0 -47 0 -89 1 -95 0 -6 65
-10 175 -10 l175 0 0 -50 0 -50 -176 -2 -177 -3 1 -105 c1 -58 2 -108 2 -112
0 -5 86 -8 190 -8 l190 0 0 -50 0 -50 -255 0 -255 0 0 370 0 370 253 0 252 0
-1 -47z m918 -215 c3 -243 5 -266 24 -302 31 -59 64 -79 137 -84 52 -3 67 0
96 20 19 13 44 39 55 58 20 33 21 54 24 303 l3 267 61 0 60 0 -4 -277 c-3
-266 -5 -280 -27 -331 -43 -96 -139 -152 -260 -152 -112 0 -200 46 -248 128
l-28 47 -3 293 -3 292 55 0 55 0 3 -262z m2653 -35 c59 -164 120 -331 135
-370 l28 -73 -63 0 -63 0 -16 43 c-9 23 -24 67 -35 97 l-18 55 -161 3 -161 2
-32 -100 -33 -100 -63 0 c-35 0 -63 1 -63 3 0 1 39 108 86 237 47 129 107 295
132 367 l47 133 86 0 86 0 108 -297z m670 267 c38 -19 55 -35 73 -70 24 -49
30 -129 11 -177 -14 -37 -54 -79 -90 -93 -36 -15 -36 -21 0 -41 33 -19 56 -64
110 -217 l41 -113 -66 3 -67 3 -37 108 c-57 167 -78 187 -202 187 l-78 0 0
-150 0 -150 -60 0 -60 0 0 371 0 370 188 -3 c176 -3 190 -4 237 -28z m753
-333 c73 -200 132 -367 132 -370 0 -4 -27 -7 -59 -7 l-59 0 -16 43 c-9 23 -24
67 -35 97 l-18 55 -160 3 -160 2 -16 -42 c-8 -24 -23 -69 -33 -100 l-18 -58
-64 0 c-47 0 -63 3 -60 13 3 6 63 173 134 369 l129 358 86 0 86 0 131 -363z
m352 -7 l0 -370 -60 0 -60 0 0 370 0 370 60 0 60 0 0 -370z m280 130 c42 -129
85 -268 95 -307 10 -40 22 -73 26 -73 4 0 11 15 14 33 7 29 132 431 168 537
l15 45 61 3 c34 2 61 0 61 -3 0 -4 -36 -115 -79 -248 -44 -133 -98 -296 -119
-362 l-39 -120 -81 -3 -80 -3 -116 356 c-65 196 -120 363 -123 371 -5 12 5 15
58 12 l63 -3 76 -235z m967 -25 c52 -143 112 -308 133 -367 l39 -108 -63 0
-63 0 -33 100 -34 100 -161 0 -161 0 -33 -100 -32 -100 -64 0 -65 0 11 28 c9
22 240 660 254 700 3 9 27 12 91 10 l86 -3 95 -260z"/>
<path d="M1540 6115 l0 -245 168 0 c191 0 251 12 306 61 58 51 79 106 75 203
-4 72 -8 87 -31 119 -66 86 -136 107 -360 107 l-158 0 0 -245z"/>
<path d="M3205 6388 c-3 -7 -27 -85 -54 -173 -27 -88 -77 -241 -110 -341 -34
-99 -61 -184 -61 -187 0 -4 106 -7 235 -7 166 0 235 3 235 11 0 6 -49 163
-110 348 -60 185 -110 342 -110 349 0 16 -19 16 -25 0z"/>
<path d="M5711 6317 c-13 -45 -64 -203 -113 -351 -48 -147 -88 -272 -88 -277
0 -5 104 -9 235 -9 166 0 235 3 235 11 0 6 -44 145 -98 308 -55 163 -105 320
-112 349 -8 28 -19 52 -24 52 -6 0 -22 -37 -35 -83z"/>
<path d="M5539 4208 c-31 -95 -54 -176 -52 -180 6 -11 221 -10 228 1 6 11
-104 351 -114 351 -3 0 -32 -78 -62 -172z"/>
<path d="M6167 4363 c-4 -3 -7 -60 -7 -125 l0 -118 95 0 c109 0 146 13 170 60
39 76 1 162 -80 180 -46 11 -169 13 -178 3z"/>
<path d="M6938 4208 c-31 -95 -54 -176 -51 -180 6 -11 221 -10 227 0 6 10
-103 352 -113 352 -3 0 -32 -78 -63 -172z"/>
<path d="M8620 4367 c0 -9 -22 -85 -50 -170 -27 -85 -50 -160 -50 -166 0 -7
36 -11 115 -11 88 0 115 3 115 13 0 29 -107 341 -118 345 -7 2 -12 -3 -12 -11z"/>
</g>
</svg>
